<?xml version="1.0" encoding="utf-8"?>
<!-- Generator: Adobe Illustrator 25.0.1, SVG Export Plug-In . SVG Version: 6.00 Build 0)  -->
<svg version="1.1" id="Layer_1" xmlns="http://www.w3.org/2000/svg" xmlns:xlink="http://www.w3.org/1999/xlink" x="0px" y="0px"
	 viewBox="0 0 612 239.3" style="enable-background:new 0 0 612 239.3;" xml:space="preserve">
<style type="text/css">
	.st0{fill:none;stroke:#303030;stroke-width:2.8651;}
	.st1{fill:none;stroke:#F89406;stroke-width:0.8186;}
	.st2{fill:none;stroke:#9A9A9A;stroke-width:0.8186;}
	.st3{fill:#303030;stroke:#9A9A9A;stroke-width:0.8186;}
	.st4{fill:#11A7A7;}
	.st5{fill:#303030;stroke:#303030;stroke-width:1.543430e-02;stroke-miterlimit:10;}
	.st6{fill:#303030;stroke:#303030;stroke-width:4.630290e-02;stroke-miterlimit:10;}
	.st7{fill:#C3C3C3;}
	.st8{fill:#303030;stroke:#303030;stroke-width:4.921407e-02;stroke-miterlimit:10;}
	.st9{fill:#303030;stroke:#303030;stroke-width:1.640469e-02;stroke-miterlimit:10;}
	.st10{fill:#231F20;}
	.st11{font-family:'Helvetica';}
	.st12{font-size:5.3209px;}
</style>
<g transform="matrix(1 0 0 1 712.874 402.5)">
	<g>
		<path class="st0" d="M-602.7-243.4c15.2,0,15.2-72.8,30.5-72.8"/>
		<path class="st1" d="M-602.7-243.4c15.2,0,15.2-72.8,30.5-72.8"/>
	</g>
	<g>
		<path class="st0" d="M-602.7-287.2c15.2,0,15.2-14.8,30.5-14.8"/>
		<path class="st2" d="M-602.7-287.2c15.2,0,15.2-14.8,30.5-14.8"/>
	</g>
	<g>
		<path class="st0" d="M-665-287.2c81.5,0,81.5,21.9,162.9,21.9"/>
		<path class="st2" d="M-665-287.2c81.5,0,81.5,21.9,162.9,21.9"/>
	</g>
	<g>
		<path class="st0" d="M-540.5-218.6c23.4,0,23.4-27.3,46.9-27.3"/>
		<path class="st2" d="M-540.5-218.6c23.4,0,23.4-27.3,46.9-27.3"/>
	</g>
	<g>
		<path class="st0" d="M-540.5-262.4c20.3,0,20.3,7.7,40.7,7.7"/>
		<path class="st2" d="M-540.5-262.4c20.3,0,20.3,7.7,40.7,7.7"/>
	</g>
	<g>
		<path class="st0" d="M-537.6-309.1c18.9,0,18.9,33.3,37.8,33.3"/>
		<path class="st2" d="M-537.6-309.1c18.9,0,18.9,33.3,37.8,33.3"/>
	</g>
	<g>
		<path class="st0" d="M-665-374.8c85.6,0,85.6,90.1,171.3,90.1"/>
		<path class="st2" d="M-665-374.8c85.6,0,85.6,90.1,171.3,90.1"/>
	</g>
	<g>
		<path class="st0" d="M-451-342.5c44.4,0,44.4,15.8,88.8,15.8"/>
		<path class="st2" d="M-451-342.5c44.4,0,44.4,15.8,88.8,15.8"/>
	</g>
	<g>
		<path class="st0" d="M-451-275.8c44.4,0,44.4-65.2,88.8-65.2"/>
		<path class="st2" d="M-451-275.8c44.4,0,44.4-65.2,88.8-65.2"/>
	</g>
	<g>
		<path class="st0" d="M-665-199.6c203.4,0,203.4-72.8,406.9-72.8"/>
		<path class="st2" d="M-665-199.6c203.4,0,203.4-72.8,406.9-72.8"/>
	</g>
	<g>
		<path class="st0" d="M-329.1-326.7c35.5,0,35.5,68.6,71,68.6"/>
		<path class="st2" d="M-329.1-326.7c35.5,0,35.5,68.6,71,68.6"/>
	</g>
	<g>
		<path class="st0" d="M-665-243.4c16,0,16-43.8,32-43.8"/>
		<path class="st2" d="M-665-243.4c16,0,16-43.8,32-43.8"/>
	</g>
	<g>
		<path class="st0" d="M-665-331c16,0,16,0,32,0"/>
		<path class="st2" d="M-665-331c16,0,16,0,32,0"/>
	</g>
	<g>
		<path class="st0" d="M-602.7-243.4c15.2,0,15.2-122.4,30.5-122.4"/>
		<path class="st1" d="M-602.7-243.4c15.2,0,15.2-122.4,30.5-122.4"/>
	</g>
	<g>
		<path class="st0" d="M-602.7-331c15.2,0,15.2-20.5,30.5-20.5"/>
		<path class="st2" d="M-602.7-331c15.2,0,15.2-20.5,30.5-20.5"/>
	</g>
	<g>
		<path class="st0" d="M-665-287.2c81.5,0,81.5-44.8,162.9-44.8"/>
		<path class="st2" d="M-665-287.2c81.5,0,81.5-44.8,162.9-44.8"/>
	</g>
	<g>
		<path class="st0" d="M-540.5-218.6c23.4,0,23.4-94,46.9-94"/>
		<path class="st2" d="M-540.5-218.6c23.4,0,23.4-94,46.9-94"/>
	</g>
	<g>
		<path class="st0" d="M-540.5-262.4c20.3,0,20.3-59,40.7-59"/>
		<path class="st2" d="M-540.5-262.4c20.3,0,20.3-59,40.7-59"/>
	</g>
	<g>
		<path class="st0" d="M-537.6-358.6c18.9,0,18.9,16.1,37.8,16.1"/>
		<path class="st2" d="M-537.6-358.6c18.9,0,18.9,16.1,37.8,16.1"/>
	</g>
	<g>
		<path class="st0" d="M-665-374.8c85.6,0,85.6,23.4,171.3,23.4"/>
		<path class="st2" d="M-665-374.8c85.6,0,85.6,23.4,171.3,23.4"/>
	</g>
	<g>
		<path class="st0" d="M-223.5-265.3c33.5,0,33.5-21.9,67.1-21.9"/>
		<path class="st2" d="M-223.5-265.3c33.5,0,33.5-21.9,67.1-21.9"/>
	</g>
	<g>
		<path class="st0" d="M-329.1-326.7c36.2,0,36.2,14.8,72.4,14.8"/>
		<path class="st2" d="M-329.1-326.7c36.2,0,36.2,14.8,72.4,14.8"/>
	</g>
	<g>
		<path class="st0" d="M-451-321.5c45.1,0,45.1,34.3,90.2,34.3"/>
		<path class="st2" d="M-451-321.5c45.1,0,45.1,34.3,90.2,34.3"/>
	</g>
	<g>
		<path class="st0" d="M-451-254.8c45.1,0,45.1,11.4,90.2,11.4"/>
		<path class="st2" d="M-451-254.8c45.1,0,45.1,11.4,90.2,11.4"/>
	</g>
	<g transform="matrix(1, 0, 0, 1, 304.03125, 160.5)">
		<g transform="matrix(1, 0, 0, 1, 0, 0)">
			<circle class="st3" cx="-859.7" cy="-469.6" r="18"/>
			<circle class="st4" cx="-859.7" cy="-469.6" r="13.5"/>
			<polygon class="st5" points="-862.2,-466.7 -862.8,-467.2 -860.7,-469.8 -862.8,-472.4 -862.2,-472.9 -859.7,-469.8 			"/>
			<rect x="-859.7" y="-467.5" class="st6" width="3.1" height="0.8"/>
		</g>
		<g transform="matrix(1, 0, 0, 1, -40.401510249807416, -17.427506119198636)">
			<g>
				<circle class="st7" cx="-835.8" cy="-459.3" r="2.9"/>
			</g>
		</g>
		<g transform="matrix(1.0000000000000002, 0, 0, 1.0000000000000002, -40.401510249807416, 17.427506119198647)">
			<g>
				<circle class="st7" cx="-835.8" cy="-479.9" r="2.9"/>
			</g>
		</g>
		<g transform="matrix(1, 0, 0, 1, 44, 0)">
			<g>
				<circle class="st7" cx="-885.7" cy="-469.6" r="2.9"/>
			</g>
		</g>
	</g>
	<g transform="matrix(1, 0, 0, 1, 500.1202392578125, 267.5)">
		<g transform="matrix(1, 0, 0, 1, 0, 0)">
			<circle class="st3" cx="-975.5" cy="-532.8" r="26.6"/>
			<circle class="st4" cx="-975.5" cy="-532.8" r="20"/>
			<polygon class="st5" points="-978,-529.9 -978.6,-530.4 -976.5,-533 -978.6,-535.6 -978,-536.1 -975.5,-533 			"/>
			<rect x="-975.5" y="-530.7" class="st6" width="3.1" height="0.8"/>
		</g>
		<g transform="matrix(1, 0, 0, 1, -44.60570226438895, -47.279290661987375)">
			<g>
				<circle class="st7" cx="-949.2" cy="-504.9" r="2.9"/>
			</g>
		</g>
		<g transform="matrix(1, 0, 0, 1, -59.68404923267005, -25.74517949427071)">
			<g>
				<circle class="st7" cx="-940.3" cy="-517.6" r="2.9"/>
			</g>
		</g>
		<g transform="matrix(1, 0, 0, 1, -65, 7.960204194457796e-15)">
			<g>
				<circle class="st7" cx="-937.1" cy="-532.8" r="2.9"/>
			</g>
		</g>
		<g transform="matrix(1.0000000000000002, 0, 0, 1.0000000000000002, -59.68404923267005, 25.745179494270726)">
			<g>
				<circle class="st7" cx="-940.3" cy="-548" r="2.9"/>
			</g>
		</g>
		<g transform="matrix(1, 0, 0, 1, -44.60570226438893, 47.27929066198739)">
			<g>
				<circle class="st7" cx="-949.2" cy="-560.7" r="2.9"/>
			</g>
		</g>
		<g transform="matrix(1, 0, 0, 1, 59.68404666153625, -25.74518545482949)">
			<g>
				<circle class="st7" cx="-1010.8" cy="-517.6" r="2.9"/>
			</g>
		</g>
		<g transform="matrix(1, 0, 0, 1, 59.68404666153625, 25.74518545482949)">
			<g>
				<circle class="st7" cx="-1010.8" cy="-548" r="2.9"/>
			</g>
		</g>
	</g>
	<g transform="matrix(1, 0, 0, 1, 817.1324462890625, 100)">
		<g transform="matrix(1, 0, 0, 1, 0, 0)">
			<circle class="st3" cx="-1162.8" cy="-433.9" r="18"/>
			<circle class="st4" cx="-1162.8" cy="-433.9" r="13.5"/>
			<polygon class="st5" points="-1165.3,-431 -1165.9,-431.5 -1163.8,-434.1 -1165.9,-436.6 -1165.3,-437.1 -1162.8,-434.1 			"/>
			<rect x="-1162.8" y="-431.8" class="st6" width="3.1" height="0.8"/>
		</g>
		<g transform="matrix(1, 0, 0, 1, -40.401510249807416, -17.427506119198636)">
			<g>
				<circle class="st7" cx="-1138.9" cy="-423.6" r="2.9"/>
			</g>
		</g>
		<g transform="matrix(1.0000000000000002, 0, 0, 1.0000000000000002, -40.401510249807416, 17.427506119198647)">
			<g>
				<circle class="st7" cx="-1138.9" cy="-444.1" r="2.9"/>
			</g>
		</g>
		<g transform="matrix(1, 0, 0, 1, 40.401508509347615, -17.427510154038423)">
			<g>
				<circle class="st7" cx="-1186.6" cy="-423.6" r="2.9"/>
			</g>
		</g>
		<g transform="matrix(1, 0, 0, 1, 40.401508509347615, 17.427510154038423)">
			<g>
				<circle class="st7" cx="-1186.6" cy="-444.1" r="2.9"/>
			</g>
		</g>
	</g>
	<g transform="matrix(1, 0, 0, 1, 1071.5074462890625, 267.5)">
		<g transform="matrix(1, 0, 0, 1, 0, 0)">
			<circle class="st3" cx="-1313" cy="-532.8" r="18"/>
			<circle class="st4" cx="-1313" cy="-532.8" r="13.5"/>
			<polygon class="st5" points="-1315.5,-529.9 -1316.1,-530.4 -1314,-533 -1316.1,-535.6 -1315.5,-536.1 -1313,-533 			"/>
			<rect x="-1313.1" y="-530.7" class="st6" width="3.1" height="0.8"/>
		</g>
		<g transform="matrix(1, 0, 0, 1, -40.401510249807416, -17.427506119198636)">
			<g>
				<circle class="st7" cx="-1289.2" cy="-522.5" r="2.9"/>
			</g>
		</g>
		<g transform="matrix(1.0000000000000002, 0, 0, 1.0000000000000002, -40.401510249807416, 17.427506119198647)">
			<g>
				<circle class="st7" cx="-1289.2" cy="-543.1" r="2.9"/>
			</g>
		</g>
		<g transform="matrix(1, 0, 0, 1, 44, 0)">
			<g>
				<circle class="st7" cx="-1339" cy="-532.8" r="2.9"/>
			</g>
		</g>
	</g>
	<g transform="matrix(1, 0, 0, 1, 152.171875, 214)">
		<g transform="matrix(1, 0, 0, 1, 0, 0)">
			<circle class="st3" cx="-770" cy="-501.2" r="15.1"/>
			<circle class="st4" cx="-770" cy="-501.2" r="11.4"/>
			<polygon class="st5" points="-772.5,-498.3 -773.1,-498.8 -771,-501.4 -773.1,-504 -772.5,-504.5 -770,-501.4 			"/>
			<rect x="-770" y="-499.1" class="st6" width="3.1" height="0.8"/>
		</g>
		<g transform="matrix(1, 0, 0, 1, -37, 4.531193156845207e-15)">
			<g>
				<circle class="st7" cx="-748.1" cy="-501.2" r="2.9"/>
			</g>
		</g>
		<g transform="matrix(1, 0, 0, 1, 37, 0)">
			<g>
				<circle class="st7" cx="-791.8" cy="-501.2" r="2.9"/>
			</g>
		</g>
	</g>
	<g transform="matrix(1, 0, 0, 1, 152.171875, 107)">
		<g transform="matrix(1, 0, 0, 1, 0, 0)">
			<circle class="st3" cx="-770" cy="-438" r="15.1"/>
			<circle class="st4" cx="-770" cy="-438" r="11.4"/>
			<polygon class="st5" points="-772.5,-435.1 -773.1,-435.6 -771,-438.2 -773.1,-440.8 -772.5,-441.3 -770,-438.2 			"/>
			<rect x="-770" y="-435.9" class="st6" width="3.1" height="0.8"/>
		</g>
		<g transform="matrix(1, 0, 0, 1, -37, 4.531193156845207e-15)">
			<g>
				<circle class="st7" cx="-748.1" cy="-438" r="2.9"/>
			</g>
		</g>
		<g transform="matrix(1, 0, 0, 1, 37, 0)">
			<g>
				<circle class="st7" cx="-791.8" cy="-438" r="2.9"/>
			</g>
		</g>
	</g>
	<g transform="matrix(1, 0, 0, 1, 304.03125, 39.5)">
		<g transform="matrix(1, 0, 0, 1, 0, 0)">
			<circle class="st3" cx="-859.7" cy="-398.1" r="18"/>
			<circle class="st4" cx="-859.7" cy="-398.1" r="13.5"/>
			<polygon class="st5" points="-862.2,-395.3 -862.8,-395.7 -860.7,-398.3 -862.8,-400.9 -862.2,-401.4 -859.7,-398.3 			"/>
			<rect x="-859.7" y="-396" class="st6" width="3.1" height="0.8"/>
		</g>
		<g transform="matrix(1, 0, 0, 1, -40.401510249807416, -17.427506119198636)">
			<g>
				<circle class="st7" cx="-835.8" cy="-387.8" r="2.9"/>
			</g>
		</g>
		<g transform="matrix(1.0000000000000002, 0, 0, 1.0000000000000002, -40.401510249807416, 17.427506119198647)">
			<g>
				<circle class="st7" cx="-835.8" cy="-408.4" r="2.9"/>
			</g>
		</g>
		<g transform="matrix(1, 0, 0, 1, 44, 0)">
			<g>
				<circle class="st7" cx="-885.7" cy="-398.1" r="2.9"/>
			</g>
		</g>
	</g>
	<g transform="matrix(1, 0, 0, 1, 0, 214)">
		<g transform="matrix(1, 0, 0, 1, 0, 0)">
			<circle class="st3" cx="-680.1" cy="-501.2" r="15.1"/>
			<circle class="st7" cx="-680.1" cy="-501.2" r="11.4"/>
			<path class="st8" d="M-678.3-505h-3.5v1l0.8,0.8v-1h1.9v1.9h0.4l1.4,0v4.1h-3.7v-1l-0.8,0.8v1h5.3v-5.7L-678.3-505z
				 M-678.2-503.1v-0.7l0.7,0.7L-678.2-503.1z"/>
			<polygon class="st9" points="-678.2,-505 -678.2,-505 -678.2,-505 			"/>
			<polygon class="st9" points="-679.8,-501.2 -681.7,-499.3 -682.3,-499.9 -681.4,-500.8 -684.6,-500.8 -684.6,-501.6 
				-681.4,-501.6 -682.3,-502.5 -681.7,-503 			"/>
		</g>
		<g transform="matrix(1, 0, 0, 1, 37, 0)">
			<g>
				<circle class="st7" cx="-702" cy="-501.2" r="2.9"/>
			</g>
		</g>
	</g>
	<g transform="matrix(1, 0, 0, 1, 304.03125, 381.5)">
		<g transform="matrix(1, 0, 0, 1, 0, 0)">
			<circle class="st3" cx="-859.7" cy="-600.1" r="15.1"/>
			<circle class="st7" cx="-859.7" cy="-600.1" r="11.4"/>
			<path class="st8" d="M-857.9-603.9h-3.5v1l0.8,0.8v-1h1.9v1.9h0.4l1.4,0v4.1h-3.7v-1l-0.8,0.8v1h5.3v-5.7L-857.9-603.9z
				 M-857.8-602.1v-0.7l0.7,0.7L-857.8-602.1z"/>
			<polygon class="st9" points="-857.8,-603.9 -857.8,-603.9 -857.8,-603.9 			"/>
			<polygon class="st9" points="-859.4,-600.1 -861.3,-598.3 -861.9,-598.9 -861,-599.7 -864.2,-599.7 -864.2,-600.6 -861,-600.6 
				-861.9,-601.4 -861.3,-602 			"/>
		</g>
		<g transform="matrix(1, 0, 0, 1, 37, 0)">
			<g>
				<circle class="st7" cx="-881.5" cy="-600.1" r="2.9"/>
			</g>
		</g>
	</g>
	<g transform="matrix(1, 0, 0, 1, 0, 428)">
		<g transform="matrix(1, 0, 0, 1, 0, 0)">
			<circle class="st3" cx="-680.1" cy="-627.6" r="15.1"/>
			<circle class="st7" cx="-680.1" cy="-627.6" r="11.4"/>
			<path class="st8" d="M-678.3-631.4h-3.5v1l0.8,0.8v-1h1.9v1.9h0.4l1.4,0v4.1h-3.7v-1l-0.8,0.8v1h5.3v-5.7L-678.3-631.4z
				 M-678.2-629.5v-0.7l0.7,0.7L-678.2-629.5z"/>
			<polygon class="st9" points="-678.2,-631.4 -678.2,-631.4 -678.2,-631.4 			"/>
			<polygon class="st9" points="-679.8,-627.6 -681.7,-625.7 -682.3,-626.3 -681.4,-627.2 -684.6,-627.2 -684.6,-628 -681.4,-628 
				-682.3,-628.9 -681.7,-629.5 			"/>
		</g>
		<g transform="matrix(1, 0, 0, 1, 37, 0)">
			<g>
				<circle class="st7" cx="-702" cy="-627.6" r="2.9"/>
			</g>
		</g>
	</g>
	<g transform="matrix(1, 0, 0, 1, 304.03125, 274.5)">
		<g transform="matrix(1, 0, 0, 1, 0, 0)">
			<circle class="st3" cx="-859.7" cy="-536.9" r="15.1"/>
			<circle class="st7" cx="-859.7" cy="-536.9" r="11.4"/>
			<g id="input">
				<path class="st8" d="M-859-539.9c-0.7,0-1.3,0.2-1.9,0.7l0.6,0.6c1-0.7,2.3-0.5,3,0.5c0.7,1,0.5,2.3-0.5,3
					c-0.8,0.6-1.8,0.6-2.6,0l-0.6,0.6c1.3,1,3.2,0.8,4.2-0.5c1-1.3,0.8-3.2-0.5-4.2C-857.7-539.7-858.3-539.9-859-539.9z"/>
				<g id="Layer_22">
					<g id="Layer_9_copy_4">
						<polygon class="st9" points="-859.4,-536.9 -861.3,-535.1 -861.9,-535.7 -861,-536.5 -864.2,-536.5 -864.2,-537.3 
							-861,-537.3 -861.9,-538.2 -861.3,-538.8 						"/>
					</g>
				</g>
			</g>
		</g>
		<g transform="matrix(1, 0, 0, 1, 37, 0)">
			<g>
				<circle class="st7" cx="-881.5" cy="-536.9" r="2.9"/>
			</g>
		</g>
	</g>
	<g transform="matrix(1, 0, 0, 1, 0, 107)">
		<g transform="matrix(1, 0, 0, 1, 0, 0)">
			<circle class="st3" cx="-680.1" cy="-438" r="15.1"/>
			<circle class="st7" cx="-680.1" cy="-438" r="11.4"/>
			<path class="st8" d="M-678.3-441.8h-3.5v1l0.8,0.8v-1h1.9v1.9h0.4l1.4,0v4.1h-3.7v-1l-0.8,0.8v1h5.3v-5.7L-678.3-441.8z
				 M-678.2-439.9v-0.7l0.7,0.7L-678.2-439.9z"/>
			<polygon class="st9" points="-678.2,-441.8 -678.2,-441.8 -678.2,-441.8 			"/>
			<polygon class="st9" points="-679.8,-438 -681.7,-436.1 -682.3,-436.7 -681.4,-437.6 -684.6,-437.6 -684.6,-438.4 -681.4,-438.4 
				-682.3,-439.3 -681.7,-439.8 			"/>
		</g>
		<g transform="matrix(1, 0, 0, 1, 37, 0)">
			<g>
				<circle class="st7" cx="-702" cy="-438" r="2.9"/>
			</g>
		</g>
	</g>
	<g transform="matrix(1, 0, 0, 1, 0, 0)">
		<g transform="matrix(1, 0, 0, 1, 0, 0)">
			<circle class="st3" cx="-680.1" cy="-374.8" r="15.1"/>
			<circle class="st7" cx="-680.1" cy="-374.8" r="11.4"/>
			<g id="input_1_">
				<path class="st8" d="M-679.4-377.8c-0.7,0-1.3,0.2-1.9,0.7l0.6,0.6c1-0.7,2.3-0.5,3,0.5s0.5,2.3-0.5,3c-0.8,0.6-1.8,0.6-2.6,0
					l-0.6,0.6c1.3,1,3.2,0.8,4.2-0.5s0.8-3.2-0.5-4.2C-678.1-377.5-678.7-377.8-679.4-377.8z"/>
				<g id="Layer_22_1_">
					<g id="Layer_9_copy_4_1_">
						<polygon class="st9" points="-679.8,-374.8 -681.7,-372.9 -682.3,-373.5 -681.4,-374.4 -684.6,-374.4 -684.6,-375.2 
							-681.4,-375.2 -682.3,-376.1 -681.7,-376.6 						"/>
					</g>
				</g>
			</g>
		</g>
		<g transform="matrix(1, 0, 0, 1, 37, 0)">
			<g>
				<circle class="st7" cx="-702" cy="-374.8" r="2.9"/>
			</g>
		</g>
	</g>
	<g transform="matrix(1, 0, 0, 1, 1316.377685546875, 214)">
		<g transform="matrix(1, 0, 0, 1, 0, 0)">
			<circle class="st3" cx="-1457.7" cy="-501.2" r="15.1"/>
			<circle class="st7" cx="-1457.7" cy="-501.2" r="11.4"/>
			<polygon class="st9" points="-1454.2,-505.4 -1454.2,-505.4 -1454.2,-505.4 			"/>
			<polygon class="st9" points="-1452.4,-501.6 -1454.2,-499.7 -1454.8,-500.3 -1453.9,-501.2 -1457.1,-501.2 -1457.1,-502 
				-1453.9,-502 -1454.8,-502.9 -1454.2,-503.5 			"/>
			<path class="st8" d="M-1457.5-502.7l1.3,0h1v-0.8l-1.9-1.9h-3.5v7.6h5.3v-2.7h-0.8v1.9h-3.7v-6h1.9v1.9H-1457.5z M-1457.1-504.2
				l0.7,0.7l-0.7,0V-504.2z"/>
		</g>
		<g transform="matrix(1, 0, 0, 1, -37, 4.531193156845207e-15)">
			<g>
				<circle class="st7" cx="-1435.8" cy="-501.2" r="2.9"/>
			</g>
		</g>
	</g>
	<g transform="matrix(1, 0, 0, 1, 1071.5074462890625, 153.5)">
		<g transform="matrix(1, 0, 0, 1, 0, 0)">
			<circle class="st3" cx="-1313" cy="-465.5" r="15.1"/>
			<circle class="st7" cx="-1313" cy="-465.5" r="11.4"/>
			<polygon class="st9" points="-1309.5,-469.6 -1309.5,-469.6 -1309.6,-469.6 			"/>
			<polygon class="st9" points="-1307.7,-465.9 -1309.6,-464 -1310.2,-464.6 -1309.3,-465.5 -1312.5,-465.5 -1312.5,-466.3 
				-1309.3,-466.3 -1310.1,-467.1 -1309.6,-467.7 			"/>
			<path class="st8" d="M-1312.8-467l1.3,0h1v-0.8l-1.9-1.9h-3.5v7.6h5.3v-2.7h-0.8v1.9h-3.7v-6h1.9v1.9H-1312.8z M-1312.4-468.5
				l0.7,0.7l-0.7,0V-468.5z"/>
		</g>
		<g transform="matrix(1, 0, 0, 1, -37, 4.531193156845207e-15)">
			<g>
				<circle class="st7" cx="-1291.2" cy="-465.5" r="2.9"/>
			</g>
		</g>
	</g>
	<g transform="matrix(1, 0, 0, 1, 817.1324462890625, 321)">
		<g transform="matrix(1, 0, 0, 1, 0, 0)">
			<circle class="st3" cx="-1162.8" cy="-564.4" r="15.1"/>
			<circle class="st7" cx="-1162.8" cy="-564.4" r="11.4"/>
			<polygon class="st9" points="-1159.3,-568.6 -1159.3,-568.6 -1159.3,-568.6 			"/>
			<polygon class="st9" points="-1157.5,-564.8 -1159.3,-562.9 -1159.9,-563.5 -1159,-564.4 -1162.2,-564.4 -1162.2,-565.2 
				-1159,-565.2 -1159.9,-566.1 -1159.3,-566.7 			"/>
			<path class="st8" d="M-1162.6-565.9l1.3,0h1v-0.8l-1.9-1.9h-3.5v7.6h5.3v-2.7h-0.8v1.9h-3.7v-6h1.9v1.9H-1162.6z M-1162.2-567.4
				l0.7,0.7l-0.7,0V-567.4z"/>
		</g>
		<g transform="matrix(1, 0, 0, 1, -37, 4.531193156845207e-15)">
			<g>
				<circle class="st7" cx="-1140.9" cy="-564.4" r="2.9"/>
			</g>
		</g>
	</g>
	<g transform="matrix(1, 0, 0, 1, 0, 321)">
		<g transform="matrix(1, 0, 0, 1, 0, 0)">
			<circle class="st3" cx="-680.1" cy="-564.4" r="15.1"/>
			<circle class="st7" cx="-680.1" cy="-564.4" r="11.4"/>
			<path class="st8" d="M-678.3-568.2h-3.5v1l0.8,0.8v-1h1.9v1.9h0.4l1.4,0v4.1h-3.7v-1l-0.8,0.8v1h5.3v-5.7L-678.3-568.2z
				 M-678.2-566.3v-0.7l0.7,0.7L-678.2-566.3z"/>
			<polygon class="st9" points="-678.2,-568.2 -678.2,-568.2 -678.2,-568.2 			"/>
			<polygon class="st9" points="-679.8,-564.4 -681.7,-562.5 -682.3,-563.1 -681.4,-564 -684.6,-564 -684.6,-564.8 -681.4,-564.8 
				-682.3,-565.7 -681.7,-566.3 			"/>
		</g>
		<g transform="matrix(1, 0, 0, 1, 37, 0)">
			<g>
				<circle class="st7" cx="-702" cy="-564.4" r="2.9"/>
			</g>
		</g>
	</g>
	<g transform="matrix(1, 0, 0, 1, 152.171875, 321)">
		<g transform="matrix(1, 0, 0, 1, 0, 0)">
			<circle class="st3" cx="-770" cy="-564.4" r="15.1"/>
			<circle class="st7" cx="-770" cy="-564.4" r="11.4"/>
			<g id="input_2_">
				<path class="st8" d="M-769.3-567.4c-0.7,0-1.3,0.2-1.9,0.7l0.6,0.6c1-0.7,2.3-0.5,3,0.5c0.7,1,0.5,2.3-0.5,3
					c-0.8,0.6-1.8,0.6-2.6,0l-0.6,0.6c1.3,1,3.2,0.8,4.2-0.5c1-1.3,0.8-3.2-0.5-4.2C-768-567.2-768.6-567.4-769.3-567.4z"/>
				<g id="Layer_22_2_">
					<g id="Layer_9_copy_4_2_">
						<polygon class="st9" points="-769.7,-564.4 -771.6,-562.5 -772.2,-563.1 -771.3,-564 -774.5,-564 -774.5,-564.8 
							-771.3,-564.8 -772.2,-565.7 -771.6,-566.3 						"/>
					</g>
				</g>
			</g>
		</g>
		<g transform="matrix(1, 0, 0, 1, 37, 0)">
			<g>
				<circle class="st7" cx="-791.8" cy="-564.4" r="2.9"/>
			</g>
		</g>
	</g>
	<g transform="matrix(1, 0, 0, 1, 817.1324462890625, 214)">
		<g transform="matrix(1, 0, 0, 1, 0, 0)">
			<circle class="st3" cx="-1162.8" cy="-501.2" r="15.1"/>
			<circle class="st7" cx="-1162.8" cy="-501.2" r="11.4"/>
			<polygon class="st9" points="-1159.3,-505.4 -1159.3,-505.4 -1159.3,-505.4 			"/>
			<polygon class="st9" points="-1157.5,-501.6 -1159.3,-499.7 -1159.9,-500.3 -1159,-501.2 -1162.2,-501.2 -1162.2,-502 
				-1159,-502 -1159.9,-502.9 -1159.3,-503.5 			"/>
			<path class="st8" d="M-1162.6-502.7l1.3,0h1v-0.8l-1.9-1.9h-3.5v7.6h5.3v-2.7h-0.8v1.9h-3.7v-6h1.9v1.9H-1162.6z M-1162.2-504.2
				l0.7,0.7l-0.7,0V-504.2z"/>
		</g>
		<g transform="matrix(1, 0, 0, 1, -37, 4.531193156845207e-15)">
			<g>
				<circle class="st7" cx="-1140.9" cy="-501.2" r="2.9"/>
			</g>
		</g>
	</g>
	<g transform="matrix(1, 0, 0, 1, 500.1202392578125, 104.5)">
		<g transform="matrix(1, 0, 0, 1, 0, 0)">
			<circle class="st3" cx="-975.5" cy="-436.5" r="26.6"/>
			<circle class="st4" cx="-975.5" cy="-436.5" r="20"/>
			<polygon class="st5" points="-978,-433.6 -978.6,-434.1 -976.5,-436.7 -978.6,-439.3 -978,-439.8 -975.5,-436.7 			"/>
			<rect x="-975.5" y="-434.4" class="st6" width="3.1" height="0.8"/>
		</g>
		<g transform="matrix(1, 0, 0, 1, -44.60570226438895, -47.279290661987375)">
			<g>
				<circle class="st7" cx="-949.2" cy="-408.6" r="2.9"/>
			</g>
		</g>
		<g transform="matrix(1, 0, 0, 1, -59.68404923267005, -25.74517949427071)">
			<g>
				<circle class="st7" cx="-940.3" cy="-421.3" r="2.9"/>
			</g>
		</g>
		<g transform="matrix(1, 0, 0, 1, -65, 7.960204194457796e-15)">
			<g>
				<circle class="st7" cx="-937.1" cy="-436.5" r="2.9"/>
			</g>
		</g>
		<g transform="matrix(1.0000000000000002, 0, 0, 1.0000000000000002, -59.68404923267005, 25.745179494270726)">
			<g>
				<circle class="st7" cx="-940.3" cy="-451.7" r="2.9"/>
			</g>
		</g>
		<g transform="matrix(1, 0, 0, 1, -44.60570226438893, 47.27929066198739)">
			<g>
				<circle class="st7" cx="-949.2" cy="-464.4" r="2.9"/>
			</g>
		</g>
		<g transform="matrix(1, 0, 0, 1, 59.68404666153625, -25.74518545482949)">
			<g>
				<circle class="st7" cx="-1010.8" cy="-421.3" r="2.9"/>
			</g>
		</g>
		<g transform="matrix(1, 0, 0, 1, 59.68404666153625, 25.74518545482949)">
			<g>
				<circle class="st7" cx="-1010.8" cy="-451.7" r="2.9"/>
			</g>
		</g>
	</g>
</g>
<g>
	<text transform="matrix(1 0 0 1 131.4839 123.6978)" class="st10 st11 st12">UniqueReads_normal</text>
	<text transform="matrix(1 0 0 1 216.3311 185.0945)" class="st10 st11 st12">normalize_normal</text>
	<text transform="matrix(1 0 0 1 351.2539 98.9351)" class="st10 st11 st12">segmentation</text>
	<text transform="matrix(1 0 0 1 458.916 167.4927)" class="st10 st11 st12">annotation</text>
	<text transform="matrix(1 0 0 1 72.2861 142.73)" class="st10 st11 st12">stage_bam_normal</text>
	<text transform="matrix(1 0 0 1 73.6177 98.9351)" class="st10 st11 st12">stage_bam_tumor</text>
	<text transform="matrix(1 0 0 1 132.8154 74.1733)" class="st10 st11 st12">UniqueReads_tumor</text>
	<text transform="matrix(1 0 0 1 27.4565 142.73)" class="st10 st11 st12">REF</text>
	<text transform="matrix(1 0 0 1 151.4517 211.2876)" class="st10 st11 st12">MAP</text>
	<text transform="matrix(1 0 0 1 18.2881 230.3198)" class="st10 st11 st12">GENE_BED</text>
	<text transform="matrix(1 0 0 1 151.3047 167.4927)" class="st10 st11 st12">MER</text>
	<text transform="matrix(1 0 0 1 18.7324 98.9351)" class="st10 st11 st12">tumor_BAM</text>
	<text transform="matrix(1 0 0 1 18.2856 55.1401)" class="st10 st11 st12">X0_POLICY</text>
	<text transform="matrix(1 0 0 1 554.1113 142.73)" class="st10 st11 st12">annotated_cnv</text>
	<text transform="matrix(1 0 0 1 465.7246 117.9673)" class="st10 st11 st12">CNV</text>
	<text transform="matrix(1 0 0 1 336.9121 186.5249)" class="st10 st11 st12">excess_zero_flag_normal</text>
	<text transform="matrix(1 0 0 1 17.4009 186.5249)" class="st10 st11 st12">normal_BAM</text>
	<text transform="matrix(1 0 0 1 86.6343 186.5249)" class="st10 st11 st12">chr_list</text>
	<text transform="matrix(1 0 0 1 338.2432 142.73)" class="st10 st11 st12">excess_zero_flag_tumor</text>
	<text transform="matrix(1 0 0 1 217.6621 109.3726)" class="st10 st11 st12">normalize_tumor</text>
</g>
</svg>
